<?xml version="1.0" ?><svg id="Layer_1" style="enable-background:new 0 0 500 500;" version="1.1" viewBox="0 0 500 500" xml:space="preserve" xmlns="http://www.w3.org/2000/svg" xmlns:xlink="http://www.w3.org/1999/xlink"><g><path d="M445.905,300.886c-6.773,21.53-11.941,42.49-21.423,63.45c-0.998,2.21-6.594,12.797-13.011,24.703   c-9.66,18.001-21.174,39.104-21.53,39.104c-3.386-2.709-7.058-5.026-10.943-6.987c-5.133-2.602-10.587-4.492-16.184-5.632   c-4.741-0.998-9.625-1.461-14.472-1.354c-18.108,0.463-35.112,8.52-52.899,12.191c-1.07,0.214-2.139,0.428-3.244,0.606   c-16.397,2.816-33.543,1.212-49.156-4.599c-13.189-4.919-25.095-12.69-36.894-20.603c-16.433-11.015-32.616-22.315-51.687-26.628   c-10.159-2.281-20.604-2.46-31.084-2.46c-13.581-0.071-27.198,0.071-40.066-3.885c-19.321-5.953-35.433-21.53-42.205-40.53   c-0.392-1.034-0.713-2.068-1.034-3.137c-0.036-0.071-0.036-0.143-0.071-0.214c75.499-23.598,134.28-83.377,180.442-147.647   c25.095-34.969,46.055-73.61,86.514-93.607c16.932-8.341,39.567-12.369,61.597-11.942c0.036,0,0.036,0,0.036,0   c16.433,0.321,32.581,3.173,45.627,8.591c2.816,1.176,5.596,2.388,8.341,3.743c7.343,3.565,14.294,7.949,20.069,13.724   c13.546,13.546,15.898,34.149,16.54,52.329C460.912,200.863,461.304,251.98,445.905,300.886z" style="fill:#BC3F3F;"/><path d="M445.905,300.886c-6.773,21.53-11.941,42.49-21.423,63.45   c-0.998,2.21-6.594,12.797-13.011,24.703c-9.66,18.001-21.174,39.104-21.53,39.104c-3.386-2.709-7.058-5.026-10.943-6.987   c8.127-7.343,15.007-16.219,20.354-25.737c12.191-21.673,17.502-46.447,21.994-70.865c6.274-33.793,11.336-68.049,9.767-102.376   c-1.569-34.327-10.159-68.94-29.337-97.457c-2.032-3.03-4.456-6.167-8.02-7.022c-3.672-0.855-7.379,0.998-10.658,2.887   c-40.566,23.277-71.507,59.244-94.748,99.525c-15.827,27.483-30.549,56.179-52.899,78.636   c-17.895,17.93-40.637,30.228-65.197,37.429c-30.442,8.876-63.629,9.839-93.607,3.707c-10.302-2.103-24.525-5.382-35.54-11.62   c-0.392-1.034-0.713-2.068-1.034-3.137c-0.036-0.071-0.036-0.143-0.071-0.214c2.032-0.642,4.064-1.283,6.06-1.996   c72.612-24.846,129.468-83.127,174.382-145.651c11.585-16.148,22.243-33.044,34.399-48.515   c14.152-18.108,30.299-34.327,52.115-45.092c0.178-0.071,0.321-0.178,0.499-0.25c16.148-7.842,37.393-11.763,58.353-11.728   c0.927,0,1.818,0,2.745,0.036c0.036,0,0.036,0,0.036,0c16.433,0.321,32.581,3.173,45.627,8.591   c0.071,0.035,0.143,0.071,0.214,0.107c2.745,1.141,5.454,2.317,8.127,3.636c7.272,3.529,14.152,7.878,19.891,13.581   c0.071,0.036,0.107,0.071,0.178,0.142c13.546,13.546,15.898,34.149,16.54,52.329C460.912,200.863,461.304,251.98,445.905,300.886z" style="opacity:0.77;fill:#A53434;"/><g><path d="M388.265,117.058c-1.604,0.606-3.422,0.035-5.133-0.178    c-4.919-0.606-9.731,0.606-14.579,1.141c-4.527,0.499-8.733-0.25-13.26-0.463c-8.555-0.356-17.217-0.784-25.38-3.386    c-8.128-2.602-15.863-7.735-19.713-15.399c-2.246-4.491-3.03-9.625-2.78-14.651c0-0.249,0.036-0.463,0.036-0.713    c16.148-7.842,37.393-11.763,58.353-11.728c-3.85,1.64-7.593,3.351-11.086,4.599c-12.334,4.384-13.118,16.362-2.424,23.527    c6.666,4.491,15.15,8.341,22.778,10.872c0.214,0.071,0.463,0.143,0.677,0.214c2.281,0.713,4.67,1.248,6.951,2.032    C382.989,113.03,389.584,116.523,388.265,117.058z" style="opacity:0.77;fill:#9B3434;"/><path d="M442.447,97.631c-0.713,2.531-2.032,4.919-3.6,7.058    c-6.951,9.517-19.677,14.472-31.262,12.12c5.81-3.065,10.444-8.412,12.334-14.686c1.854-6.31,0.855-13.439-2.959-18.786    c-0.749-1.069-1.604-2.032-2.531-2.923c2.745,1.141,5.454,2.317,8.127,3.636C429.828,87.579,436.708,91.927,442.447,97.631z" style="opacity:0.77;fill:#9B3434;"/></g><path d="M371.689,117.7c-34.719,18.572-63.343,46.91-88.046,77.567   c-5.596,6.915-10.979,13.973-16.362,20.995c-8.27,10.801-15.506,22.814-24.845,32.545c-11.764,12.191-25.06,25.166-39.069,34.577   c-30.477,20.425-65.268,34.434-101.449,40.744c-4.776,0.82-9.625,1.533-14.544,1.996c-13.902,1.283-28.125,0.82-41.314-3.208   c72.612-24.846,129.468-83.127,174.382-145.651c11.585-16.148,22.243-33.044,34.399-48.515c3.957-1.141,7.985-2.21,12.013-3.173   c16.647-4.028,33.65-6.595,50.76-7.628c8.27-0.499,16.183,0.25,24.311,0.25c5.383,0,10.765-0.178,16.112-0.285   C361.316,117.878,368.873,119.197,371.689,117.7z" style="opacity:0.77;fill:#9B3434;"/><path d="M346.844,103.762c15.934,6.773,32.759,8.127,49.334,12.583   c-39.246,1.069-69.118,24.632-97.207,49.548c-26.236,23.241-48.693,50.368-74.002,74.608c-27.662,26.485-59.03,49.62-94.57,63.807   c-23.847,9.517-60.349,22.279-90.328,20.818c-0.036-0.071-0.036-0.143-0.071-0.214c75.499-23.598,134.28-83.377,180.442-147.647   c25.095-34.969,46.055-73.61,86.514-93.607c16.932-8.341,39.567-12.369,61.597-11.942c-8.305,0.535-16.611,1.854-24.703,3.814   c-6.167,1.461-15.649,4.598-15.97,12.262C327.452,97.381,339.964,100.839,346.844,103.762z" style="fill:#EA4E4E;"/><path d="M445.905,300.886c-6.773,21.53-11.941,42.49-21.423,63.45c-0.998,2.21-6.594,12.797-13.011,24.703   c15.97-43.025,28.303-87.583,30.264-133.317c0.962-23.027-0.713-46.091-2.424-69.083c-1.105-15.292-2.495-31.226-8.484-45.485   c-6.915-16.54-15.399-22.065-32.688-24.56c3.386,0.499,8.805-1.355,12.155-2.032c6.345-1.248,18.857-5.311,21.602-11.942   c2.994-7.307-3.707-14.829-9.339-18.572c7.343,3.565,14.294,7.949,20.069,13.724c13.546,13.546,15.898,34.149,16.54,52.329   C460.912,200.863,461.304,251.98,445.905,300.886z" style="fill:#EA4E4E;"/><path d="M244.36,327.586c0.143,16.469-8.555,31.618-18.144,44.986   c-6.844,9.589-14.401,18.928-20.069,29.194c-16.433-11.015-32.616-22.315-51.687-26.628c-10.159-2.281-20.604-2.46-31.084-2.46   c26.236-5.347,51.509-14.722,74.786-28.196c9.803-5.668,19.285-11.977,28.303-18.821   C234.38,319.636,244.182,310.654,244.36,327.586z" style="opacity:0.77;fill:#A53434;"/><path d="M362.813,415.525c-4.741-0.998-9.625-1.461-14.472-1.354   c-18.108,0.463-35.112,8.52-52.899,12.191c0.142-0.178,0.321-0.392,0.463-0.57c17.716-21.851,32.83-45.271,43.275-71.471   c10.694-26.77,17.823-54.788,27.27-81.987c1.283-3.707,3.351-8.02,7.272-8.484c5.276-0.642,8.092,5.953,8.947,11.193   C390.404,322.345,381.242,371.109,362.813,415.525z" style="opacity:0.77;fill:#A53434;"/><path d="M431.147,152.954c-8.163,3.101-18.144-1.64-23.063-8.199c-3.85-5.133-5.097-11.371-7.415-17.253   c-0.428-1.176-0.927-2.353-1.497-3.494c-0.428-0.891-1.711-2.46-2.78-4.099c-1.034,2.317-1.568,5.062-2.174,7.664   c-0.107,0.535-0.214,1.069-0.356,1.604c-1.996,8.056-6.737,15.435-13.26,20.604c-6.523,5.133-14.758,8.056-23.099,8.163   c7.414-4.563,11.442-12.904,14.971-20.853c3.529-7.949,7.343-16.362,14.508-21.21c0.036-0.036,0.107-0.071,0.142-0.107   c6.595-4.313,14.971-2.46,20.889,2.21c0.25,0.178,0.499,0.392,0.713,0.571c3.779,3.208,6.452,7.593,7.949,12.334   c1.176,3.6,1.675,7.486,3.351,10.872C422.414,146.502,426.87,149.817,431.147,152.954z" style="fill:#EA4E4E;"/><path d="M408.013,117.985c0,0.856-0.142,1.747-0.392,2.567   c-0.998,3.422-3.743,5.917-6.951,6.951c-0.428-1.176-0.927-2.353-1.497-3.494c-0.428-0.891-1.711-2.46-2.78-4.099   c-1.034,2.317-1.568,5.062-2.174,7.664c-1.034-0.356-2.032-0.855-2.958-1.568c-1.176-0.891-2.103-2.067-3.066-3.244   c-0.499-0.642-0.891-1.461-1.105-2.353c-0.356-1.462-0.321-3.101,0.036-4.634C393.719,111.462,402.096,113.315,408.013,117.985z" style="opacity:0.55;fill:#B53838;"/><path d="M392.749,121.818c1.443,0.967,3.251,1.164,4.979,1.334c2.025,0.199,4.311,0.318,5.831-1.035   c0.989-0.88,1.432-2.215,1.706-3.51c0.243-1.151,0.374-2.402-0.137-3.462c-0.347-0.718-0.952-1.271-1.544-1.805   c-2.907-2.626-8.851-4.254-12.39-1.528C388.174,114.139,390.018,119.987,392.749,121.818z" style="fill:#EA4E4E;"/><path d="M322.677,100.509c1.923,2.304,4.206,4.334,6.681,6.015   c6.069,4.122,13.225,6.355,20.404,7.869c2.133,0.45,4.611,1.102,5.43,3.122c-17.091,7.309-34.502,13.486-49.056,25.389   c-8.175,6.686-16.112,13.66-23.862,20.833c-9.367,8.67-18.299,17.794-27.098,27.035c-21.813,22.91-42.834,46.77-67.157,67.109   c-11.94,9.984-24.673,19.086-38.408,26.445c-13.513,7.241-30.406,15.65-45.887,16.26c22.105-13.497,44.744-27.154,63.215-45.539   c16.813-16.734,33.018-33.933,47.971-52.36c14.842-18.292,25.99-39.236,40.385-57.791c8.588-11.07,17.391-22.018,27.187-32.055   c9.538-9.772,20.574-21.407,34.604-23.886C317.849,93.236,319.884,97.162,322.677,100.509z" style="opacity:0.15;fill:#FFCFAE;"/><path d="M377.583,134.786c-2.316,6.247-5.786,12.064-10.182,17.07   c4.314-2.348,8.549-4.93,12.137-8.284c3.588-3.354,6.52-7.545,7.748-12.301c0.747-2.891-0.363-8.451-4.474-6.124   C379.784,126.861,378.695,131.787,377.583,134.786z" style="opacity:0.15;fill:#FFCFAE;"/><path d="M422.741,151.918c-1.506-2.439-3.709-4.394-5.171-6.86   c-0.961-1.62-1.576-3.417-2.184-5.2c-1.095-3.208-2.19-6.416-3.285-9.625c-0.784-2.296-4.301-6.83-6.069-2.774   c-1.151,2.64,0.354,6.851,1.322,9.302c1.363,3.45,3.462,6.608,6.093,9.22c1.357,1.347,2.857,2.552,4.474,3.574   C418.866,150.152,422.244,151.113,422.741,151.918z" style="opacity:0.15;fill:#FFCFAE;"/><path d="M395.399,119.234c1.566,0.67,3.424,0.617,4.95-0.141   c0.502-0.25,0.983-0.588,1.259-1.075c0.377-0.665,0.305-1.517-0.029-2.205c-0.334-0.688-0.898-1.236-1.493-1.717   c-1.455-1.177-3.285-2.063-5.145-1.85C389.768,112.839,392.119,117.83,395.399,119.234z" style="opacity:0.15;fill:#FFCFAE;"/><path d="M452.819,136.928c0.188,2.012,0.361,4.001,0.642,5.875   c2.508,16.697,1.762,33.666,1.226,50.475c-0.645,20.215-2.731,40.384-6.244,60.302c1.408-21.537-0.202-43.144-1.812-64.666   c-1.086-14.525-2.453-29.034-8.131-42.596c-4.306-10.284-6.842-20.632-16.632-27.3c3.637-0.935,9.177-2.864,12.284-5.087   c2.168-1.552,6.093-7.295,4.322-10.118c4.372,6.965,9.449,14.495,12.355,22.221C452.07,129.332,452.469,133.168,452.819,136.928z" style="opacity:0.15;fill:#FFCFAE;"/></g></svg>
